<?xml version="1.0" encoding="UTF-8" standalone="no"?>
<svg
   xmlns:dc="http://purl.org/dc/elements/1.1/"
   xmlns:cc="http://creativecommons.org/ns#"
   xmlns:rdf="http://www.w3.org/1999/02/22-rdf-syntax-ns#"
   xmlns:svg="http://www.w3.org/2000/svg"
   xmlns="http://www.w3.org/2000/svg"
   xmlns:sodipodi="http://sodipodi.sourceforge.net/DTD/sodipodi-0.dtd"
   xmlns:inkscape="http://www.inkscape.org/namespaces/inkscape"
   width="800mm"
   height="500mm"
   viewBox="0 0 800 500"
   version="1.1"
   preserveAspectRatio="xMidYMid meet"
   id="svg13"
   sodipodi:docname="controller box.svg"
   inkscape:version="0.92.2 (5c3e80d, 2017-08-06)">
  <metadata
     id="metadata19">
    <rdf:RDF>
      <cc:Work
         rdf:about="">
        <dc:format>image/svg+xml</dc:format>
        <dc:type
           rdf:resource="http://purl.org/dc/dcmitype/StillImage" />
        <dc:title />
      </cc:Work>
    </rdf:RDF>
  </metadata>
  <defs
     id="defs17" />
  <sodipodi:namedview
     pagecolor="#ffffff"
     bordercolor="#666666"
     borderopacity="1"
     objecttolerance="10"
     gridtolerance="10"
     guidetolerance="10"
     inkscape:pageopacity="0"
     inkscape:pageshadow="2"
     inkscape:window-width="1578"
     inkscape:window-height="1000"
     id="namedview15"
     showgrid="false"
     showborder="true"
     inkscape:zoom="0.35355339"
     inkscape:cx="808.7635"
     inkscape:cy="900.80957"
     inkscape:window-x="1407"
     inkscape:window-y="450"
     inkscape:window-maximized="0"
     inkscape:current-layer="svgGroup" />
  <g
     id="svgGroup"
     font-size="9pt"
     style="font-size:12px;fill:none;fill-rule:evenodd;stroke:#000000;stroke-width:0.25000001mm;stroke-linecap:round"
     transform="translate(0,224.99999)">
    <path
       style="vector-effect:non-scaling-stroke;stroke:#ff0000;stroke-width:0.00377953;stroke-miterlimit:4;stroke-dasharray:none;stroke-opacity:1"
       d="m 0,737.00781 v 37.79492 H 22.677734 V 820.1582 H 0 v 45.35352 h 22.677734 v 45.35351 H 0 v 45.35547 h 22.677734 v 45.3535 H 0 v 37.7949 H 45.353516 V 905.95117 c 0,-7.43198 5.984029,-13.41601 13.416015,-13.41601 H 583.75 c 7.43199,0 13.41602,5.98403 13.41602,13.41601 v 133.41793 h 18.89648 26.45703 v -37.7949 H 619.8418 v -45.3535 h 22.67773 V 910.86523 H 619.8418 v -45.35351 h 22.67773 V 820.1582 H 619.8418 v -45.35547 h 22.67773 v -37.79492 z"
       id="front_outsideCutPath"
       inkscape:connector-curvature="0"
       transform="scale(0.26458333)" />
    <path
       d="m 96.66,257.66075 h -1.297 v -5.539 a 3.666,3.666 0 0 0 -0.042,-0.575 q -0.048,-0.303 -0.151,-0.544 a 1.543,1.543 0 0 0 -0.283,-0.444 1.462,1.462 0 0 0 -0.6,-0.382 q -0.235,-0.084 -0.525,-0.115 a 3.438,3.438 0 0 0 -0.367,-0.018 q -0.886,0 -1.459,0.315 a 1.828,1.828 0 0 0 -0.51,0.411 2.12,2.12 0 0 0 -0.369,0.644 q -0.222,0.592 -0.252,1.473 a 8.308,8.308 0 0 0 -0.004,0.282 v 4.492 h -1.297 v -8.563 h 1.055 l 0.211,1.172 h 0.062 a 2.626,2.626 0 0 1 1.029,-0.936 3.158,3.158 0 0 1 0.088,-0.044 q 0.719,-0.348 1.602,-0.348 1.026,0 1.715,0.328 a 2.33,2.33 0 0 1 0.613,0.418 2.248,2.248 0 0 1 0.548,0.86 q 0.131,0.354 0.188,0.793 a 5.66,5.66 0 0 1 0.045,0.734 z m -24.914,-8.563 v 1.008 h -2.18 v 7.555 H 68.27 v -7.555 h -1.532 v -0.586 l 1.532,-0.469 v -0.476 a 5.256,5.256 0 0 1 0.122,-1.191 q 0.38,-1.625 1.933,-1.906 a 3.942,3.942 0 0 1 0.702,-0.059 4.176,4.176 0 0 1 0.591,0.045 q 0.46,0.066 1.003,0.228 l -0.336,1.039 q -0.533,-0.172 -0.955,-0.222 a 2.789,2.789 0 0 0 -0.326,-0.02 1.749,1.749 0 0 0 -0.422,0.048 1.123,1.123 0 0 0 -0.664,0.44 1.501,1.501 0 0 0 -0.198,0.4 q -0.154,0.455 -0.154,1.167 v 0.554 z m 31.516,7.492 v 0.993 a 1.276,1.276 0 0 1 -0.152,0.06 q -0.187,0.062 -0.469,0.108 a 5.621,5.621 0 0 1 -0.367,0.047 q -0.173,0.017 -0.328,0.019 a 3.325,3.325 0 0 1 -0.044,0 3.387,3.387 0 0 1 -0.998,-0.134 q -1.097,-0.339 -1.384,-1.531 a 4.076,4.076 0 0 1 -0.102,-0.952 v -5.094 h -1.227 v -0.625 l 1.227,-0.539 0.547,-1.828 h 0.75 v 1.984 h 2.484 v 1.008 h -2.484 v 5.039 a 2.611,2.611 0 0 0 0.038,0.459 q 0.079,0.447 0.329,0.729 0.367,0.414 1.008,0.414 a 4.259,4.259 0 0 0 0.624,-0.045 3.925,3.925 0 0 0 0.04,-0.006 q 0.306,-0.049 0.49,-0.101 a 1.951,1.951 0 0 0 0.018,-0.005 z m -25.024,-7.554 -0.179,1.203 a 5.716,5.716 0 0 0 -0.411,-0.076 q -0.205,-0.03 -0.388,-0.038 a 3.042,3.042 0 0 0 -0.139,-0.003 2.247,2.247 0 0 0 -1.66,0.717 3.074,3.074 0 0 0 -0.117,0.126 2.962,2.962 0 0 0 -0.715,1.663 3.936,3.936 0 0 0 -0.024,0.439 v 4.594 h -1.296 v -8.563 h 1.07 l 0.148,1.586 h 0.063 a 4.38,4.38 0 0 1 0.49,-0.699 3.345,3.345 0 0 1 0.658,-0.59 2.585,2.585 0 0 1 1.477,-0.453 5.954,5.954 0 0 1 0.533,0.023 4.345,4.345 0 0 1 0.49,0.071 z m 8.873,5.639 a 6.699,6.699 0 0 0 0.119,-1.303 q 0,-0.833 -0.176,-1.524 a 4.038,4.038 0 0 0 -0.882,-1.711 3.395,3.395 0 0 0 -1.576,-1.016 4.358,4.358 0 0 0 -1.28,-0.179 5.037,5.037 0 0 0 -0.904,0.078 3.43,3.43 0 0 0 -2.002,1.09 q -1.047,1.168 -1.047,3.262 a 6.488,6.488 0 0 0 0.082,1.051 4.798,4.798 0 0 0 0.403,1.308 4.263,4.263 0 0 0 0.094,0.185 3.511,3.511 0 0 0 1.281,1.362 q 0.89,0.539 2.039,0.539 a 5.036,5.036 0 0 0 0.879,-0.073 3.457,3.457 0 0 0 2.035,-1.103 3.618,3.618 0 0 0 0.431,-0.592 q 0.351,-0.601 0.504,-1.374 z m -6.404,-1.303 a 6.567,6.567 0 0 0 0.063,0.938 q 0.14,0.968 0.593,1.562 0.657,0.859 1.93,0.859 a 3.012,3.012 0 0 0 0.795,-0.099 2.096,2.096 0 0 0 1.139,-0.756 q 0.66,-0.856 0.66,-2.504 a 6.471,6.471 0 0 0 -0.062,-0.922 q -0.067,-0.47 -0.21,-0.85 a 2.67,2.67 0 0 0 -0.388,-0.709 2.133,2.133 0 0 0 -1.327,-0.791 3.271,3.271 0 0 0 -0.623,-0.056 3.086,3.086 0 0 0 -0.768,0.09 2.066,2.066 0 0 0 -1.154,0.746 2.681,2.681 0 0 0 -0.416,0.805 q -0.123,0.37 -0.181,0.823 a 6.853,6.853 0 0 0 -0.051,0.864 z"
       id="front_labelLayer"
       style="vector-effect:non-scaling-stroke;fill:#00ff00;stroke:none;stroke-width:0.29999998;stroke-miterlimit:4;stroke-dasharray:none;fill-opacity:1"
       inkscape:connector-curvature="0" />
    <path
       d="m 179,195 v 10 h -6 v 12 h 6 v 12 h -6 v 12 h 6 v 12 h -6 v 12 h 6 v 10 h 17.5 v -6 h 12 v 6 h 12 v -6 h 12 v 6 h 12 v -6 h 12 v 6 h 12 v -6 h 12 v 6 h 12 v -6 h 12 v 6 h 12 v -6 h 12 v 6 h 12 v -6 h 12 v 6 h 12 v -6 h 12 v 6 h 12 v -6 h 12 v 6 h 12 v -6 h 12 v 6 h 12 5.5 v -10 h 6 v -12 h -6 v -12 h 6 v -12 h -6 v -12 h 6 v -12 h -6 v -10 z"
       id="left_outsideCutPath"
       style="vector-effect:non-scaling-stroke;stroke:#ff0000;stroke-width:0.001;stroke-miterlimit:4;stroke-dasharray:none;stroke-opacity:1"
       inkscape:connector-curvature="0" />
    <path
       d="m 316.191,232.48 v 1.008 h -2.179 v 7.555 h -1.297 v -7.555 h -1.531 v -0.586 l 1.531,-0.469 v -0.476 a 5.256,5.256 0 0 1 0.123,-1.191 q 0.379,-1.625 1.932,-1.906 a 3.942,3.942 0 0 1 0.703,-0.059 4.176,4.176 0 0 1 0.591,0.045 q 0.46,0.066 1.002,0.228 l -0.336,1.039 q -0.532,-0.172 -0.955,-0.222 a 2.789,2.789 0 0 0 -0.326,-0.02 1.749,1.749 0 0 0 -0.421,0.048 1.123,1.123 0 0 0 -0.665,0.44 1.501,1.501 0 0 0 -0.198,0.4 q -0.153,0.455 -0.153,1.167 v 0.554 z m -6.07,3.696 v 0.82 h -5.898 a 5.205,5.205 0 0 0 0.091,0.871 q 0.093,0.475 0.281,0.85 a 2.435,2.435 0 0 0 0.389,0.568 2.357,2.357 0 0 0 1.238,0.697 3.571,3.571 0 0 0 0.798,0.084 6.85,6.85 0 0 0 2.565,-0.508 7.848,7.848 0 0 0 0.169,-0.07 v 1.156 a 7.786,7.786 0 0 1 -0.71,0.268 5.954,5.954 0 0 1 -0.591,0.158 q -0.613,0.129 -1.48,0.129 a 5.04,5.04 0 0 1 -1.261,-0.149 3.568,3.568 0 0 1 -1.735,-1.007 q -1.035,-1.09 -1.094,-2.977 a 7.408,7.408 0 0 1 -0.004,-0.234 q 0,-2.07 1.019,-3.289 a 3.323,3.323 0 0 1 2.423,-1.208 4.585,4.585 0 0 1 0.316,-0.011 3.951,3.951 0 0 1 1.112,0.149 3.006,3.006 0 0 1 1.435,0.91 q 0.937,1.058 0.937,2.793 z m 11.57,3.796 v 0.993 a 1.276,1.276 0 0 1 -0.151,0.06 q -0.188,0.062 -0.47,0.108 a 5.621,5.621 0 0 1 -0.366,0.047 q -0.173,0.017 -0.328,0.019 a 3.325,3.325 0 0 1 -0.044,0 3.387,3.387 0 0 1 -0.998,-0.134 q -1.097,-0.339 -1.385,-1.531 a 4.076,4.076 0 0 1 -0.101,-0.952 v -5.094 h -1.227 v -0.625 l 1.227,-0.539 0.547,-1.828 h 0.75 v 1.984 h 2.484 v 1.008 h -2.484 v 5.039 a 2.611,2.611 0 0 0 0.037,0.459 q 0.08,0.447 0.33,0.729 0.367,0.414 1.008,0.414 a 4.259,4.259 0 0 0 0.623,-0.045 3.925,3.925 0 0 0 0.041,-0.006 q 0.305,-0.049 0.49,-0.101 a 1.951,1.951 0 0 0 0.017,-0.005 z m -21.086,-11.085 v 12.156 h -1.296 v -12.156 z m 3.649,7.054 h 4.476 q 0,-1.226 -0.546,-1.879 a 1.777,1.777 0 0 0 -1.07,-0.609 2.665,2.665 0 0 0 -0.493,-0.043 2.556,2.556 0 0 0 -0.738,0.101 1.975,1.975 0 0 0 -0.906,0.571 q -0.614,0.672 -0.723,1.859 z"
       id="left_labelLayer"
       style="vector-effect:non-scaling-stroke;fill:#00ff00;stroke:none;stroke-width:0.29999998;stroke-miterlimit:4;stroke-dasharray:none;fill-opacity:1"
       inkscape:connector-curvature="0" />
    <path
       d="m 0,112 v 10 h 6 v 12 H 0 v 12 h 6 v 12 H 0 v 12 h 6 v 12 H 0 v 10 h 19 v -6 h 12 v 6 h 12 v -6 h 12 v 6 h 12 v -6 h 12 v 6 h 12 v -6 h 12 v 6 h 12 v -6 h 12 v 6 h 12 v -6 h 12 v 6 h 12 7 v -10 h -6 v -12 h 6 v -12 h -6 v -12 h 6 v -12 h -6 v -12 h 6 v -10 z"
       id="back_outsideCutPath"
       style="vector-effect:non-scaling-stroke;stroke:#ff0000;stroke-width:0.001;stroke-miterlimit:4;stroke-dasharray:none;stroke-opacity:1"
       inkscape:connector-curvature="0" />
    <path
       d="m 95.953,153.617 h 0.063 q 0.257,-0.365 0.72,-0.904 a 27.864,27.864 0 0 1 0.303,-0.346 l 2.766,-2.93 h 1.539 l -3.469,3.649 3.711,4.914 h -1.57 l -3.024,-4.047 -0.976,0.844 V 158 h -1.282 v -12.156 h 1.282 v 6.445 q 0,0.43 -0.063,1.328 z m -26.242,3.281 H 69.617 L 69.344,158 h -0.93 v -12.156 h 1.297 v 2.953 a 27.039,27.039 0 0 1 -0.015,0.913 q -0.015,0.461 -0.048,0.868 h 0.063 a 2.949,2.949 0 0 1 2.152,-1.25 4.429,4.429 0 0 1 0.535,-0.031 3.964,3.964 0 0 1 1.116,0.149 2.967,2.967 0 0 1 1.506,1.003 q 0.933,1.152 0.933,3.262 0,1.488 -0.469,2.508 a 3.645,3.645 0 0 1 -0.472,0.769 3.07,3.07 0 0 1 -2.182,1.148 4.399,4.399 0 0 1 -0.432,0.02 3.934,3.934 0 0 1 -0.988,-0.12 3.423,3.423 0 0 1 -0.539,-0.188 2.872,2.872 0 0 1 -1.16,-0.95 z M 84.445,158 h -0.961 l -0.257,-1.219 h -0.063 q -0.641,0.805 -1.277,1.09 -0.637,0.285 -1.59,0.285 -1.274,0 -1.996,-0.656 a 2.132,2.132 0 0 1 -0.643,-1.124 3.263,3.263 0 0 1 -0.08,-0.743 2.244,2.244 0 0 1 1.277,-2.118 q 0.95,-0.506 2.608,-0.59 a 12.668,12.668 0 0 1 0.264,-0.011 l 1.453,-0.047 v -0.531 q 0,-0.616 -0.162,-1.035 a 1.447,1.447 0 0 0 -0.272,-0.453 q -0.433,-0.481 -1.387,-0.481 a 4.222,4.222 0 0 0 -0.971,0.121 q -0.446,0.106 -0.931,0.303 a 8.685,8.685 0 0 0 -0.519,0.232 l -0.399,-0.992 a 5.979,5.979 0 0 1 1.154,-0.474 6.806,6.806 0 0 1 0.233,-0.065 6.006,6.006 0 0 1 1.512,-0.195 q 0.957,0 1.605,0.266 a 2.207,2.207 0 0 1 0.664,0.413 2.054,2.054 0 0 1 0.53,0.818 q 0.124,0.336 0.174,0.753 a 5.103,5.103 0 0 1 0.034,0.609 z m 8.383,-8.274 -0.398,1.102 Q 92,150.656 91.492,150.543 a 5.357,5.357 0 0 0 -0.407,-0.076 q -0.199,-0.028 -0.376,-0.035 a 2.875,2.875 0 0 0 -0.115,-0.002 2.877,2.877 0 0 0 -1.168,0.219 q -1.225,0.54 -1.409,2.406 a 7.166,7.166 0 0 0 -0.033,0.703 6.281,6.281 0 0 0 0.063,0.914 q 0.068,0.464 0.212,0.841 a 2.69,2.69 0 0 0 0.362,0.667 2.06,2.06 0 0 0 1.335,0.797 3.138,3.138 0 0 0 0.552,0.046 5.429,5.429 0 0 0 1.497,-0.218 6.703,6.703 0 0 0 0.698,-0.243 v 1.149 a 3.689,3.689 0 0 1 -0.902,0.319 q -0.568,0.126 -1.262,0.126 a 4.847,4.847 0 0 1 -1.179,-0.135 3.287,3.287 0 0 1 -1.7,-1.009 q -0.88,-0.989 -1,-2.686 a 7.842,7.842 0 0 1 -0.019,-0.553 7.156,7.156 0 0 1 0.11,-1.301 q 0.135,-0.726 0.432,-1.298 a 3.575,3.575 0 0 1 0.493,-0.721 3.358,3.358 0 0 1 1.839,-1.057 5.091,5.091 0 0 1 1.11,-0.115 5.852,5.852 0 0 1 1.234,0.133 6.473,6.473 0 0 1 0.36,0.088 q 0.367,0.101 0.609,0.224 z m -22.03,0.979 a 1.725,1.725 0 0 0 -0.501,0.439 2.22,2.22 0 0 0 -0.322,0.613 q -0.216,0.607 -0.255,1.531 a 9.992,9.992 0 0 0 -0.009,0.423 q 0,1.533 0.434,2.324 a 1.956,1.956 0 0 0 0.168,0.258 q 0.601,0.777 1.929,0.777 1.196,0 1.781,-0.871 a 2.977,2.977 0 0 0 0.369,-0.797 q 0.217,-0.712 0.217,-1.707 a 7.662,7.662 0 0 0 -0.046,-0.873 q -0.11,-0.955 -0.48,-1.531 a 2.151,2.151 0 0 0 -0.06,-0.088 1.891,1.891 0 0 0 -1.204,-0.762 2.999,2.999 0 0 0 -0.608,-0.058 q -0.863,0 -1.413,0.322 z m 12.35,3.857 v -0.773 l -1.296,0.055 a 9.522,9.522 0 0 0 -0.761,0.055 q -0.751,0.087 -1.221,0.295 a 1.992,1.992 0 0 0 -0.249,0.13 1.384,1.384 0 0 0 -0.659,1.004 2.048,2.048 0 0 0 -0.025,0.32 q 0.001,0.703 0.426,1.071 0.426,0.367 1.192,0.367 a 3.571,3.571 0 0 0 0.771,-0.079 q 0.537,-0.118 0.934,-0.417 a 2.165,2.165 0 0 0 0.197,-0.168 q 0.688,-0.661 0.691,-1.846 a 4.13,4.13 0 0 0 0,-0.014 z"
       id="back_labelLayer"
       style="vector-effect:non-scaling-stroke;fill:#00ff00;stroke:none;stroke-width:0.29999998;stroke-miterlimit:4;stroke-dasharray:none;fill-opacity:1"
       inkscape:connector-curvature="0" />
    <path
       d="m 179,112 v 10 h -6 v 12 h 6 v 12 h -6 v 12 h 6 v 12 h -6 v 12 h 6 v 10 h 17.5 v -6 h 12 v 6 h 12 v -6 h 12 v 6 h 12 v -6 h 12 v 6 h 12 v -6 h 12 v 6 h 12 v -6 h 12 v 6 h 12 v -6 h 12 v 6 h 12 v -6 h 12 v 6 h 12 v -6 h 12 v 6 h 12 v -6 h 12 v 6 h 12 v -6 h 12 v 6 h 12 5.5 v -10 h 6 v -12 h -6 v -12 h 6 v -12 h -6 v -12 h 6 v -12 h -6 v -10 z"
       id="right_outsideCutPath"
       style="vector-effect:non-scaling-stroke;stroke:#ff0000;stroke-width:0.001;stroke-miterlimit:4;stroke-dasharray:none;stroke-opacity:1"
       inkscape:connector-curvature="0" />
    <path
       d="m 320.449,156.156 h -1.297 v -5.539 a 3.666,3.666 0 0 0 -0.042,-0.575 q -0.048,-0.302 -0.151,-0.544 a 1.543,1.543 0 0 0 -0.283,-0.443 1.462,1.462 0 0 0 -0.6,-0.383 q -0.235,-0.083 -0.525,-0.114 a 3.438,3.438 0 0 0 -0.367,-0.019 3.925,3.925 0 0 0 -0.734,0.064 q -0.407,0.077 -0.72,0.249 a 1.816,1.816 0 0 0 -0.519,0.421 2.158,2.158 0 0 0 -0.366,0.649 q -0.221,0.595 -0.251,1.478 a 8.37,8.37 0 0 0 -0.004,0.28 v 4.476 h -1.297 V 144 h 1.297 v 3.68 a 11.666,11.666 0 0 1 -0.008,0.448 q -0.015,0.373 -0.055,0.653 h 0.078 a 2.591,2.591 0 0 1 0.908,-0.873 3.165,3.165 0 0 1 0.182,-0.099 3.329,3.329 0 0 1 1.093,-0.325 4.209,4.209 0 0 1 0.521,-0.031 q 1.57,0 2.355,0.746 0.61,0.58 0.746,1.69 a 5.608,5.608 0 0 1 0.039,0.681 z m -11.875,-8.562 h 2.961 v 0.82 l -1.586,0.188 a 2.108,2.108 0 0 1 0.183,0.271 q 0.08,0.14 0.152,0.308 a 3.998,3.998 0 0 1 0.056,0.135 2.495,2.495 0 0 1 0.148,0.596 3.204,3.204 0 0 1 0.024,0.4 2.973,2.973 0 0 1 -0.137,0.922 2.405,2.405 0 0 1 -0.723,1.086 q -0.774,0.676 -2.068,0.743 a 5.633,5.633 0 0 1 -0.291,0.007 4.168,4.168 0 0 1 -0.482,-0.027 3.52,3.52 0 0 1 -0.237,-0.035 2.308,2.308 0 0 0 -0.372,0.24 q -0.192,0.156 -0.303,0.333 a 0.976,0.976 0 0 0 -0.153,0.528 q 0,0.352 0.289,0.52 a 0.91,0.91 0 0 0 0.202,0.083 q 0.211,0.062 0.533,0.078 a 4.933,4.933 0 0 0 0.257,0.007 h 1.516 a 5.309,5.309 0 0 1 0.806,0.057 q 0.422,0.065 0.762,0.203 a 2.344,2.344 0 0 1 0.569,0.326 1.897,1.897 0 0 1 0.705,1.208 2.85,2.85 0 0 1 0.041,0.495 2.808,2.808 0 0 1 -0.161,0.971 q -0.267,0.731 -0.98,1.197 a 3.889,3.889 0 0 1 -1.003,0.455 q -0.494,0.15 -1.096,0.223 A 10.279,10.279 0 0 1 306.957,160 q -1.68,0 -2.59,-0.625 -0.851,-0.585 -0.906,-1.62 a 2.739,2.739 0 0 1 -0.004,-0.146 q 0,-0.781 0.5,-1.351 a 2.265,2.265 0 0 1 0.778,-0.567 3.21,3.21 0 0 1 0.628,-0.207 1.346,1.346 0 0 1 -0.522,-0.422 1.598,1.598 0 0 1 -0.029,-0.039 1.202,1.202 0 0 1 -0.22,-0.649 1.489,1.489 0 0 1 -0.002,-0.077 1.483,1.483 0 0 1 0.075,-0.478 1.314,1.314 0 0 1 0.175,-0.342 1.856,1.856 0 0 1 0.245,-0.277 q 0.13,-0.122 0.298,-0.241 a 4.074,4.074 0 0 1 0.246,-0.162 2.274,2.274 0 0 1 -0.988,-0.791 2.818,2.818 0 0 1 -0.094,-0.139 2.681,2.681 0 0 1 -0.412,-1.292 3.272,3.272 0 0 1 -0.006,-0.208 q 0,-1.406 0.844,-2.168 a 2.754,2.754 0 0 1 1.057,-0.583 q 0.42,-0.128 0.925,-0.164 a 5.728,5.728 0 0 1 0.408,-0.015 4.971,4.971 0 0 1 0.658,0.042 3.786,3.786 0 0 1 0.553,0.115 z m 18.477,7.492 v 0.992 a 1.276,1.276 0 0 1 -0.152,0.06 q -0.187,0.062 -0.469,0.108 a 5.621,5.621 0 0 1 -0.367,0.048 q -0.173,0.016 -0.328,0.018 a 3.325,3.325 0 0 1 -0.044,0 3.387,3.387 0 0 1 -0.998,-0.134 q -1.097,-0.338 -1.384,-1.53 a 4.076,4.076 0 0 1 -0.102,-0.953 v -5.093 h -1.227 v -0.625 l 1.227,-0.54 0.547,-1.828 h 0.75 v 1.985 h 2.484 v 1.008 h -2.484 v 5.039 a 2.611,2.611 0 0 0 0.038,0.458 q 0.08,0.448 0.329,0.729 0.367,0.414 1.008,0.414 a 4.259,4.259 0 0 0 0.624,-0.044 3.925,3.925 0 0 0 0.04,-0.007 q 0.306,-0.048 0.49,-0.1 a 1.951,1.951 0 0 0 0.018,-0.005 z m -28.172,-7.555 -0.18,1.203 a 5.716,5.716 0 0 0 -0.411,-0.076 q -0.205,-0.029 -0.387,-0.038 a 3.042,3.042 0 0 0 -0.139,-0.003 2.247,2.247 0 0 0 -1.66,0.717 3.074,3.074 0 0 0 -0.118,0.127 2.962,2.962 0 0 0 -0.714,1.663 3.936,3.936 0 0 0 -0.024,0.438 v 4.594 h -1.297 v -8.562 h 1.071 l 0.148,1.586 h 0.062 a 4.38,4.38 0 0 1 0.49,-0.7 3.345,3.345 0 0 1 0.659,-0.589 2.585,2.585 0 0 1 1.476,-0.454 5.954,5.954 0 0 1 0.533,0.023 4.345,4.345 0 0 1 0.491,0.071 z m 2.898,0.063 v 8.562 h -1.297 v -8.562 z m 6.352,8.367 h -1.555 q -0.883,0 -1.375,0.422 a 1.367,1.367 0 0 0 -0.449,0.775 2.075,2.075 0 0 0 -0.043,0.436 1.302,1.302 0 0 0 0.086,0.483 q 0.123,0.311 0.424,0.521 a 1.522,1.522 0 0 0 0.076,0.05 q 0.586,0.36 1.68,0.36 1.632,0 2.418,-0.489 a 1.892,1.892 0 0 0 0.439,-0.367 1.418,1.418 0 0 0 0.346,-0.957 1.755,1.755 0 0 0 -0.032,-0.348 q -0.041,-0.201 -0.133,-0.35 a 0.817,0.817 0 0 0 -0.265,-0.267 q -0.327,-0.205 -1.094,-0.254 a 8.252,8.252 0 0 0 -0.523,-0.015 z m -2.719,-5.625 a 2.531,2.531 0 0 0 0.052,0.531 q 0.111,0.515 0.456,0.828 0.457,0.416 1.238,0.457 a 3.339,3.339 0 0 0 0.176,0.004 2.825,2.825 0 0 0 0.74,-0.088 q 0.846,-0.23 1.074,-1.061 a 2.627,2.627 0 0 0 0.084,-0.695 2.789,2.789 0 0 0 -0.095,-0.763 q -0.332,-1.166 -1.826,-1.166 a 2.721,2.721 0 0 0 -0.555,0.053 q -0.34,0.071 -0.599,0.236 a 1.493,1.493 0 0 0 -0.253,0.203 1.556,1.556 0 0 0 -0.376,0.634 q -0.116,0.358 -0.116,0.827 z m -4.82,-5.715 a 0.607,0.607 0 0 0 -0.134,0.19 q -0.085,0.185 -0.085,0.462 a 1.531,1.531 0 0 0 0.007,0.147 q 0.031,0.329 0.212,0.506 a 0.728,0.728 0 0 0 0.263,0.167 0.824,0.824 0 0 0 0.284,0.048 0.757,0.757 0 0 0 0.539,-0.215 q 0.226,-0.215 0.226,-0.653 a 1.484,1.484 0 0 0 -0.006,-0.14 q -0.032,-0.333 -0.22,-0.508 a 0.764,0.764 0 0 0 -0.539,-0.211 0.99,0.99 0 0 0 -0.066,0.002 0.75,0.75 0 0 0 -0.481,0.205 z"
       id="right_labelLayer"
       style="vector-effect:non-scaling-stroke;fill:#00ff00;stroke:none;stroke-width:0.29999998;stroke-miterlimit:4;stroke-dasharray:none;fill-opacity:1"
       inkscape:connector-curvature="0" />
    <path
       d="m 6,-160.05012 v 17.5 H 0 v 12 h 6 v 12 H 0 v 12.00007 h 6 v 12.000038 H 0 v 12 h 6 v 12 H 0 v 12 h 6 v 12 H 0 v 12 h 6 v 12.000004 H 0 v 12.000007 H 6 V 1.4499931 H 0 V 13.449988 h 6 v 12 H 0 v 12 h 6 v 12 H 0 v 12 h 6 v 12 H 0 v 11.999976 h 6 v 11.999931 5.499985 h 5.89068 l -0.0276,6 h 8.44889 130.67033 6.85216 l -0.014,-6 h 5.16185 1 V 85.449964 h 6 V 73.449988 h -6 v -12 h 6 v -12 h -6 v -12 h 6 l 0.0146,-12 H 164 v -12 h 6 V 1.4499931 h -6 V -10.550001 h 6 v -12.000007 h -6 v -12.000004 h 6 v -12 h -6 v -12 h 6 v -12 h -6 v -12 h 6 v -12 h -6 v -12.000038 h 6 v -12.00007 h -6 v -12 h 6 v -12 h -6 v -12 -5.5 h -13 v -6 h -12 v 6 h -12 v -6 h -12 v 6 h -12 v -6 H 91 v 6 H 79 v -6 H 67 v 6 H 55 v -6 H 43 v 6 H 31 v -6 H 19 v 6 H 7 Z"
       id="bottom_outsideCutPath"
       style="vector-effect:non-scaling-stroke;stroke:#ff0000;stroke-width:0.001;stroke-miterlimit:4;stroke-dasharray:none;stroke-opacity:1"
       inkscape:connector-curvature="0"
       sodipodi:nodetypes="ccccccccccccccccccccccccccccccccccccccccccccccccccccccccccccccccccccccccccccccccccccccccccccccccccccccccccccccccccccccc" />
    <path
       d="m 140.931,-15.800004 h -2.756 v -11.837007 a 8.13,8.13 0 0 0 -0.082,-1.196001 q -0.194,-1.302 -0.848,-2.067 a 2.9,2.9 0 0 0 -1.348,-0.871 q -0.48,-0.155 -1.066,-0.199 a 6.397,6.397 0 0 0 -0.475,-0.017 q -1.804,0 -2.947,0.727 a 3.649,3.649 0 0 0 -0.854,0.751 q -1.223,1.47 -1.229,4.520002 a 15.378,15.378 0 0 0 0,0.028 v 10.161006 h -2.756 v -11.837007 a 8.13,8.13 0 0 0 -0.082,-1.196001 q -0.194,-1.302 -0.847,-2.067 a 2.891,2.891 0 0 0 -1.33,-0.864 q -0.479,-0.157 -1.063,-0.203 a 6.453,6.453 0 0 0 -0.513,-0.02 6.845,6.845 0 0 0 -1.415,0.137 q -0.874,0.185 -1.524,0.619 a 3.612,3.612 0 0 0 -0.854,0.796 4.621,4.621 0 0 0 -0.685,1.302 q -0.445,1.257001 -0.508,3.141002 a 19.187,19.187 0 0 0 -0.011,0.646 v 9.546006 h -2.756 v -18.196008 h 2.242 l 0.448,2.49 h 0.133 a 5.416,5.416 0 0 1 2.199,-2.075 6.543,6.543 0 0 1 2.585,-0.725 7.903,7.903 0 0 1 0.595,-0.022 q 4.266,0 5.578,3.088 h 0.132 a 5.754,5.754 0 0 1 2.168,-2.152 6.914,6.914 0 0 1 0.19,-0.106 6.975,6.975 0 0 1 2.559,-0.778 8.697,8.697 0 0 1 0.96,-0.052 9.58,9.58 0 0 1 1.738,0.147 q 1.818,0.336 2.886,1.439 1.118,1.154 1.422,3.316 a 12.64,12.64 0 0 1 0.114,1.755001 z M 31.825,-18.141005 h -0.199 l -0.581,2.341001 h -1.976 v -25.832008 h 2.756 v 6.275 a 57.457,57.457 0 0 1 -0.031,1.941 q -0.031,0.918 -0.093,1.736 a 34.384,34.384 0 0 1 -0.009,0.108 h 0.133 a 6.266,6.266 0 0 1 4.574,-2.656 9.412,9.412 0 0 1 1.137,-0.067 8.423,8.423 0 0 1 2.371,0.317 6.305,6.305 0 0 1 3.199,2.132 8.121,8.121 0 0 1 1.424,2.743 q 0.35,1.129001 0.481,2.483002 a 17.689,17.689 0 0 1 0.079,1.705 16.158,16.158 0 0 1 -0.214,2.719002 q -0.441,2.576001 -1.787,4.246003 a 6.524,6.524 0 0 1 -4.637,2.438001 9.347,9.347 0 0 1 -0.916,0.044 8.359,8.359 0 0 1 -2.1,-0.257 7.273,7.273 0 0 1 -1.146,-0.399 6.104,6.104 0 0 1 -2.465,-2.017001 z m 46.983,0.066 v 2.109001 a 2.711,2.711 0 0 1 -0.322,0.127 q -0.343,0.114 -0.834,0.202 a 10.306,10.306 0 0 1 -0.164,0.027 11.945,11.945 0 0 1 -0.779,0.102 q -0.367,0.035 -0.697,0.039 a 7.063,7.063 0 0 1 -0.093,10e-4 q -5.279,0 -5.279,-5.562003 v -10.824005 h -2.607 v -1.328 l 2.607,-1.146 1.162,-3.885 h 1.593 v 4.217 h 5.28 v 2.142 h -5.28 v 10.708005 a 5.549,5.549 0 0 0 0.08,0.974 q 0.17,0.951001 0.701,1.549001 a 2.56,2.56 0 0 0 1.574,0.838001 3.684,3.684 0 0 0 0.567,0.042 9.051,9.051 0 0 0 1.326,-0.095 8.341,8.341 0 0 0 0.085,-0.013 14.909,14.909 0 0 0 0.398,-0.068 q 0.408,-0.076 0.682,-0.156 z m 12.002,0 v 2.109001 a 2.711,2.711 0 0 1 -0.321,0.127 q -0.343,0.114 -0.834,0.202 a 10.306,10.306 0 0 1 -0.164,0.027 11.945,11.945 0 0 1 -0.779,0.102 q -0.367,0.035 -0.697,0.039 a 7.063,7.063 0 0 1 -0.093,10e-4 q -5.28,0 -5.28,-5.562003 v -10.824005 h -2.606 v -1.328 l 2.606,-1.146 1.163,-3.885 h 1.593 v 4.217 h 5.28 v 2.142 h -5.28 v 10.708005 a 5.549,5.549 0 0 0 0.08,0.974 q 0.17,0.951001 0.701,1.549001 a 2.56,2.56 0 0 0 1.573,0.838001 3.684,3.684 0 0 0 0.568,0.042 9.051,9.051 0 0 0 1.326,-0.095 8.341,8.341 0 0 0 0.085,-0.013 14.909,14.909 0 0 0 0.398,-0.068 q 0.408,-0.076 0.681,-0.156 z m -27.442,0.108 a 7.688,7.688 0 0 0 0.915,-1.258001 q 1.326,-2.268001 1.326,-5.690004 0,-1.768 -0.375,-3.238001 a 8.581,8.581 0 0 0 -1.874,-3.635001 q -2.25,-2.54 -6.068,-2.54 -3.951,0 -6.176,2.482 a 7.614,7.614 0 0 0 -0.935,1.297 q -0.72,1.255 -1.038,2.867001 a 14.309,14.309 0 0 0 -0.251,2.767001 13.786,13.786 0 0 0 0.173,2.233002 10.195,10.195 0 0 0 0.856,2.781001 9.058,9.058 0 0 0 0.2,0.393001 7.461,7.461 0 0 0 2.722,2.894001 7.674,7.674 0 0 0 1.761,0.783001 8.85,8.85 0 0 0 2.572,0.363 q 3.951,0 6.192,-2.499001 z m 44.542,0 a 7.688,7.688 0 0 0 0.915,-1.258001 q 1.326,-2.268001 1.326,-5.690004 0,-1.768 -0.375,-3.238001 a 8.581,8.581 0 0 0 -1.874,-3.635001 q -2.25,-2.54 -6.068,-2.54 -3.951,0 -6.176,2.482 a 7.614,7.614 0 0 0 -0.935,1.297 q -0.721,1.255 -1.038,2.867001 a 14.309,14.309 0 0 0 -0.251,2.767001 13.786,13.786 0 0 0 0.173,2.233002 10.195,10.195 0 0 0 0.856,2.781001 9.058,9.058 0 0 0 0.2,0.393001 7.461,7.461 0 0 0 2.722,2.894001 7.674,7.674 0 0 0 1.761,0.783001 8.85,8.85 0 0 0 2.572,0.363 q 3.951,0 6.192,-2.499001 z M 51.747,-24.91501 q 0,3.487003 1.395,5.313003 a 4.517,4.517 0 0 0 2.941,1.732002 6.844,6.844 0 0 0 1.159,0.094 q 2.706,0 4.109,-1.818002 a 5.916,5.916 0 0 0 0.921,-1.794 q 0.271,-0.829001 0.39,-1.841001 a 14.516,14.516 0 0 0 0.092,-1.686002 q 0,-2.225001 -0.577,-3.765002 a 5.674,5.674 0 0 0 -0.826,-1.506 4.533,4.533 0 0 0 -2.818,-1.681 6.951,6.951 0 0 0 -1.324,-0.12 6.559,6.559 0 0 0 -1.633,0.191 4.389,4.389 0 0 0 -2.451,1.585 q -0.992,1.279 -1.27,3.461002 a 14.563,14.563 0 0 0 -0.108,1.835 z m 44.542,0 q 0,3.487003 1.395,5.313003 a 4.517,4.517 0 0 0 2.941,1.732002 6.844,6.844 0 0 0 1.159,0.094 q 2.706,0 4.109,-1.818002 a 5.916,5.916 0 0 0 0.921,-1.794 q 0.271,-0.829001 0.39,-1.841001 a 14.516,14.516 0 0 0 0.092,-1.686002 q 0,-2.225001 -0.577,-3.765002 a 5.674,5.674 0 0 0 -0.826,-1.506 4.533,4.533 0 0 0 -2.819,-1.681 6.951,6.951 0 0 0 -1.323,-0.12 6.559,6.559 0 0 0 -1.633,0.191 4.389,4.389 0 0 0 -2.451,1.585 q -0.992,1.279 -1.27,3.461002 a 14.563,14.563 0 0 0 -0.108,1.835 z m -59.151,-7.072002 a 7.744,7.744 0 0 0 -1.5,0.135 q -0.855,0.169 -1.503,0.549 a 3.665,3.665 0 0 0 -1.065,0.935 4.718,4.718 0 0 0 -0.683,1.301 q -0.562,1.576001 -0.562,4.152002 a 18.222,18.222 0 0 0 0.09,1.884002 q 0.199,1.900001 0.832,3.056001 a 4.157,4.157 0 0 0 0.356,0.547001 3.998,3.998 0 0 0 2.029,1.369001 q 0.677,0.212 1.504,0.265 a 8.861,8.861 0 0 0 0.568,0.018 5.494,5.494 0 0 0 1.56,-0.209 3.963,3.963 0 0 0 2.225,-1.642002 6.326,6.326 0 0 0 0.783,-1.693 q 0.462,-1.514001 0.462,-3.628003 a 16.282,16.282 0 0 0 -0.098,-1.855 q -0.234,-2.029002 -1.021,-3.254002 a 4.572,4.572 0 0 0 -0.126,-0.187 4.019,4.019 0 0 0 -2.558,-1.619 6.374,6.374 0 0 0 -1.293,-0.124 z"
       id="bottom_labelLayer"
       style="vector-effect:non-scaling-stroke;fill:#00ff00;stroke:none;stroke-width:0.29999998;stroke-miterlimit:4;stroke-dasharray:none;fill-opacity:1"
       inkscape:connector-curvature="0" />
    <rect
       style="opacity:1;fill:none;fill-opacity:1;fill-rule:nonzero;stroke:#ff0000;stroke-width:0.001;stroke-linecap:round;stroke-linejoin:round;stroke-miterlimit:4;stroke-dasharray:none;stroke-dashoffset:0;stroke-opacity:1;paint-order:markers fill stroke"
       id="rect836"
       width="39.699997"
       height="20"
       x="65.149979"
       y="207.00819"
       ry="3.0000045"
       rx="3.0000045" />
    <g
       id="g866"
       transform="translate(7.6419373,68.997556)">
      <circle
         style="opacity:1;fill:none;fill-opacity:1;fill-rule:nonzero;stroke:#ff0000;stroke-width:0.001;stroke-linecap:round;stroke-linejoin:round;stroke-miterlimit:4;stroke-dasharray:none;stroke-dashoffset:0;stroke-opacity:1;paint-order:markers fill stroke"
         id="circle860"
         cx="66.343216"
         cy="69.796524"
         r="1.5999999" />
      <circle
         r="1.5999999"
         cy="69.796524"
         cx="88.37291"
         id="circle862"
         style="opacity:1;fill:none;fill-opacity:1;fill-rule:nonzero;stroke:#ff0000;stroke-width:0.001;stroke-linecap:round;stroke-linejoin:round;stroke-miterlimit:4;stroke-dasharray:none;stroke-dashoffset:0;stroke-opacity:1;paint-order:markers fill stroke" />
      <ellipse
         style="opacity:1;fill:none;fill-opacity:1;fill-rule:nonzero;stroke:#ff0000;stroke-width:0.001;stroke-linecap:round;stroke-linejoin:round;stroke-miterlimit:4;stroke-dasharray:none;stroke-dashoffset:0;stroke-opacity:1;paint-order:markers fill stroke"
         id="circle864"
         cx="77.35807"
         cy="69.796524"
         rx="5.8499999"
         ry="5.8499994" />
    </g>
    <rect
       style="opacity:1;fill:none;fill-opacity:1;fill-rule:nonzero;stroke:#ff0000;stroke-width:0.001;stroke-linecap:round;stroke-linejoin:round;stroke-miterlimit:4;stroke-dasharray:none;stroke-dashoffset:0;stroke-opacity:1;paint-order:markers fill stroke"
       id="rect868"
       width="157.98233"
       height="263"
       x="-407.32605"
       y="-108.74981"
       rx="0"
       ry="0"
       transform="scale(-1)" />
    <rect
       transform="scale(-1)"
       ry="0"
       rx="0"
       y="-108.74981"
       x="-206.39844"
       height="263"
       width="32.890999"
       id="rect870"
       style="opacity:1;fill:none;fill-opacity:1;fill-rule:nonzero;stroke:#ff0000;stroke-width:0.001;stroke-linecap:round;stroke-linejoin:round;stroke-miterlimit:4;stroke-dasharray:none;stroke-dashoffset:0;stroke-opacity:1;paint-order:markers fill stroke" />
    <rect
       style="opacity:1;fill:none;fill-opacity:1;fill-rule:nonzero;stroke:#ff0000;stroke-width:0.001;stroke-linecap:round;stroke-linejoin:round;stroke-miterlimit:4;stroke-dasharray:none;stroke-dashoffset:0;stroke-opacity:1;paint-order:markers fill stroke"
       id="rect872"
       width="32.890999"
       height="263"
       x="-244.58118"
       y="-108.74981"
       rx="0"
       ry="0"
       transform="scale(-1)" />
  </g>
</svg>
